<svg id="Livello_1" data-name="Livello 1" xmlns="http://www.w3.org/2000/svg" viewBox="0 0 248.7 121.33"><defs><style>.cls-1{fill:#153243;}.cls-2{fill:#284b63;}</style></defs><title>Logo Lorenzo</title><path class="cls-1" d="M709,15.83" transform="translate(-786.8 -85.69)"/><path class="cls-2" d="M1030.92,142.21a13,13,0,0,1-3.46-3.14,13.94,13.94,0,0,1-2.16-4.09,14.44,14.44,0,0,1-.74-4.54,31.45,31.45,0,0,1,.34-4.06c.22-1.68.48-3.47.76-5.37s.55-3.8.77-5.72a42.83,42.83,0,0,0,.34-5.05,27.9,27.9,0,0,0-5.06-15.92A23.36,23.36,0,0,0,1016,88.7a14.85,14.85,0,0,0-7.25-3H960.3v3.24a43.69,43.69,0,0,1,6.78,1.14,12.34,12.34,0,0,1,4,1.7,4.94,4.94,0,0,1,1.88,2.28,7.73,7.73,0,0,1,.49,2.84q0,4.45-4,13.65l-30.18,69.54-28-68.67q-4.11-10.23-4.11-14.08c0-1.81,1-3.51,2.84-5.12s5.15-2.7,9.76-3.28V85.69H813.53c-3,.13-5.06,1.51-7.26,3.06a23.43,23.43,0,0,0-5.68,5.73,28.53,28.53,0,0,0-5.06,16.21,44.66,44.66,0,0,0,.34,5.14c.22,2,.48,3.89.76,5.82s.55,3.76.77,5.47a34.34,34.34,0,0,1,.34,4.13,14.65,14.65,0,0,1-.75,4.62,14,14,0,0,1-2.16,4.17,13,13,0,0,1-3.45,3.19A12.56,12.56,0,0,1,786.8,145v2.66a12.1,12.1,0,0,1,4.56,1.79,13.89,13.89,0,0,1,3.43,3.23,14.62,14.62,0,0,1,2.18,4.16,14.27,14.27,0,0,1,.77,4.56,35,35,0,0,1-.34,4.1c-.22,1.73-.48,3.58-.77,5.53s-.54,3.9-.76,5.86a44,44,0,0,0-.34,5.07,28.34,28.34,0,0,0,1.34,8.63,28.65,28.65,0,0,0,3.72,7.61,23.21,23.21,0,0,0,5.68,5.76c2.2,1.56,4.77,3,7.26,3.06h94l10.38-32.93-3-.62a93.9,93.9,0,0,1-4.7,9.75,45.23,45.23,0,0,1-4.65,6.85,24.4,24.4,0,0,1-4.88,4.51,22.51,22.51,0,0,1-5.37,2.69q-5.73,2.05-19.59,2.06h-8.86q-11.82,0-14-.9a6.29,6.29,0,0,1-2.33-1.47,7.06,7.06,0,0,1-1.43-2.42,15.45,15.45,0,0,1-.76-3.71c-.15-1.49-.22-3.28-.22-5.37V109.23q0-10.92,1.43-13.69a12.14,12.14,0,0,1,2-2.64,10.43,10.43,0,0,1,3.31-2.11,21.62,21.62,0,0,1,5.37-1.34,61.77,61.77,0,0,1,8.19-.45l14.68-.07a25.24,25.24,0,0,1,6.43,2,16.58,16.58,0,0,1,4.68,3.41,21.9,21.9,0,0,1,3.54,5q1.53,2.94,3.11,6.7L942.28,207h3.24L990,104.76q3.49-8,4.81-9.62a15.43,15.43,0,0,1,5.34-4.24,24.5,24.5,0,0,1,8.64-2,7.9,7.9,0,0,1,4.85,1.4,14.07,14.07,0,0,1,3.36,3.45,14.92,14.92,0,0,1,2,4.22,17.09,17.09,0,0,1,.64,4.7,37.27,37.27,0,0,1-.33,4.35c-.23,1.79-.47,3.65-.75,5.59s-.52,3.85-.74,5.72a42.6,42.6,0,0,0-.34,4.8,24.1,24.1,0,0,0,3.55,12.49,24.72,24.72,0,0,0,10.6,9.43,23.62,23.62,0,0,0-6.09,4.19,26.68,26.68,0,0,0-4.43,5.5,24.81,24.81,0,0,0-2.71,6.2,23.23,23.23,0,0,0-.92,6.36,42.6,42.6,0,0,0,.34,4.8q.33,2.81.74,5.72c.28,1.94.52,3.8.75,5.59a37.27,37.27,0,0,1,.33,4.35,17.14,17.14,0,0,1-.64,4.7,14.92,14.92,0,0,1-2,4.22,14.07,14.07,0,0,1-3.36,3.45,17.78,17.78,0,0,1-4.87,2.46v2.24a18,18,0,0,0,7.29-3,23.13,23.13,0,0,0,5.69-5.65,27.81,27.81,0,0,0,3.71-7.48,27.09,27.09,0,0,0,1.35-8.47,42.58,42.58,0,0,0-.34-5q-.33-2.88-.77-5.75c-.28-1.92-.54-3.73-.76-5.44a31.76,31.76,0,0,1-.34-4,13.74,13.74,0,0,1,.77-4.47,14.36,14.36,0,0,1,2.18-4.09,13.67,13.67,0,0,1,3.43-3.17,12.16,12.16,0,0,1,4.56-1.76v-2.62A12.51,12.51,0,0,1,1030.92,142.21ZM831,185.46q0,10.47-1.88,13.24-3.4,5-11,5h-4.57a7.76,7.76,0,0,1-4.83-1.47,14.17,14.17,0,0,1-3.36-3.52,14.93,14.93,0,0,1-2-4.29,17.75,17.75,0,0,1-.65-4.79,38.83,38.83,0,0,1,.34-4.42q.33-2.73.74-5.7c.28-2,.52-3.91.75-5.82a43.73,43.73,0,0,0,.33-4.88,24.06,24.06,0,0,0-.91-6.48,25.75,25.75,0,0,0-2.71-6.31,27.36,27.36,0,0,0-4.43-5.6,23.49,23.49,0,0,0-6.1-4.26A24.8,24.8,0,0,0,804,130.35a24.71,24.71,0,0,0,.88-6.51,43.73,43.73,0,0,0-.33-4.88c-.23-1.91-.47-3.85-.75-5.82s-.52-3.88-.74-5.7a39,39,0,0,1-.34-4.42,17.75,17.75,0,0,1,.65-4.79,14.93,14.93,0,0,1,2-4.29,14.17,14.17,0,0,1,3.36-3.52A8.07,8.07,0,0,1,813.53,89h4.57q6.89,0,10.37,3.94,2.5,2.78,2.51,14.23Z" transform="translate(-786.8 -85.69)"/><path class="cls-2" d="M-68.26-855.17" transform="translate(-786.8 -85.69)"/></svg>